<svg id="Layer_1" data-name="Layer 1" xmlns="http://www.w3.org/2000/svg" viewBox="0 0 1031.25 175.69"><path d="M282.2,17.08c-.91,1.29-1.93,2.7-3.09,4.2-1.3,1.67-2.75,3.46-4.41,5.31a108.42,108.42,0,0,1-9,9.13c-1.64,1.46-3.46,3.1-5.55,4.8a83.2,83.2,0,0,1-12.87,8.78c-1.54.82-3.14,1.64-4.84,2.41-1.27.59-2.61,1.16-4,1.7a79.59,79.59,0,0,1-30.74,5.35,52.36,52.36,0,0,0,27,1.16l.21-.05a52.47,52.47,0,0,0,22.85-11.64c.16-.14.32-.29.47-.41-.06.14-.13.27-.2.43-2,4.55-6.8,13.26-16.35,17.74a34.76,34.76,0,0,1-9.89,2.79c-.39,0-.77.08-1.11.14-8.48,1.16-13.74-.18-20.88-1.3-14.68-2.34-23.3.69-23.3.69s20.26,4.43,26.31,8.16c5.54,3.39,13.05,7.21,19.73,7.64.62,0,1.23,0,1.82,0-.57.24-1.13.45-1.64.68a35.76,35.76,0,0,0-4.88,2.64c-3.8,2.5-5.23,4.54-9,5.5a14.51,14.51,0,0,1-3.79.43,20.59,20.59,0,0,1-10-2.68c-13.59-7.24-20.39-11-25-11-9.37,0-19.72,6.29-19.72,6.29s14-1.7,22.81,3.91,19.49,12.74,22.24,13.21c2.5.42,12.44,2.87,17.32-.86-6.91,6.94-16.5,16.69-30.42,13.08-8.68-2.92-19.67-7.51-19.67-7.51a58.46,58.46,0,0,0-43.43,8.28c21.31-2.19,22.79-3.34,32.13-1.07s21,8.12,26.2,12.59c-19.13-.79-16.78-3.33-38.59,6.1S117,148,107.42,148s-24.27.17-32.91-4.36l-8.59-4.52c1,.25,14.16,3.82,22.56,1.72,8.73-2.18,12.32-4.11,12.32-4.11l17.46.61s10.82-3.14,11.26-4.53c-19.65-.43-18.69,2.62-36.05-6S45.88,92.53,0,127.22C35.63,96,53.55,91.59,90.57,96c17.23,4.65,30.51,7.46,36.1,5.58s24.92-8.37,12.8-16.76-30.72-7.21-54.82,6c24.26-16.94,33-20.42,33-20.42s15.71-6.46,30.56-4.89A40.36,40.36,0,0,0,176,54.92s23.58-14.31,49.77-5.07c-9.61-4.71-10.66-7.85-24.8-7.49s-21.47,4.35-21.47,4.35-15.91,4.38-31.1-8.21c14.5,3.68,36.33-.7,36.33-.7s16.67-4.53,33.61.25c1,.27,2,.59,3,.93a49.42,49.42,0,0,1,5.14,2.14c3.82,1.49,10.32,3.22,17,.88a20.76,20.76,0,0,0,4.42-2,4.87,4.87,0,0,0,2.52-3.38s0-.1,0-.18c.18-2.39-2-5.12-5.45-6.71a65,65,0,0,0-10.71-2.16c-8.69-1-14.2.29-19.6.61a49.17,49.17,0,0,1-11.42-.64c-.62-.09-1.25-.22-1.89-.34a64.9,64.9,0,0,1-11.55-3.57c17.64,1.39,25.85,1.93,34.22-.88s25.67-10.12,34.4-9.42,10.47.34,10.47.34c-1.25-.61-2.46-1.13-3.64-1.57h0a38.59,38.59,0,0,0-3.72-1.24,30.79,30.79,0,0,0-13.4-1c-3.75.57-6.89,1.86-14.32,2.8a86.17,86.17,0,0,1-10.28.75c-3.38-.05-13.1-.91-25.31-12.39A75.72,75.72,0,0,0,224,6.14c14.44.23,26.54,0,26.54,0a51.6,51.6,0,0,1,15,1.81,39.26,39.26,0,0,1,7.94,3A38.4,38.4,0,0,1,282.2,17.08Z" fill="#fff"/><path d="M397.42,39.11c-.41-19.32-9-33.31-27.87-37.24A76.15,76.15,0,0,0,359,.44a243.15,243.15,0,0,0-27.56-.1,84.72,84.72,0,0,0-11.34,1.32c-1,.19-1.09.35-.1.5s1.85.28,2.71.46c6.53,1.34,11,7.07,13.24,13.09,3.68,10.05,3.81,21.83,2.22,33.86a154.4,154.4,0,0,1-3,16,204.51,204.51,0,0,1-19.3,49.09c-.05.11-.12.23-.18.34A185.42,185.42,0,0,1,297,142.8c-8.55,10.5-19.48,21-31.47,26.1-7.52,3.19-15.37,3.59-20.81-.05-.13-.08-.2,0-.22.12a.46.46,0,0,0,.11.38c1,1,2.05,2.07,3.14,3.07,1.57,1.46,3.93,1.85,6.21,2.19a121.62,121.62,0,0,0,16.28,1.07q17.28.1,36.61-1.41c11.5-.89,22.8-6.05,33-13.89,14.93-11.51,26.19-25.83,34.95-41.64q17.36-31.44,21.78-63.5A100.43,100.43,0,0,0,397.42,39.11ZM307.84,151.58h0a.1.1,0,0,1,0-.16c17.64-22,30.35-46.93,39-72.31a213.29,213.29,0,0,0,10.64-47.89c.14-1.56.25-3.09.32-4.64.11-1.9.3-1.95.61-.18a58.67,58.67,0,0,1,.48,15.3c-1.77,20.81-9.11,43.32-19.3,64.37A172,172,0,0,1,308,151.55C308,151.6,307.9,151.62,307.84,151.58Zm12.69,0h0s0-.07,0-.13a219.81,219.81,0,0,0,19-28q22.78-40.31,29.29-82.95a118.34,118.34,0,0,0,1.4-13.91c.07-1.89.28-1.94.62-.2a49.23,49.23,0,0,1,.79,10,122.65,122.65,0,0,1-3.47,25.29,210.89,210.89,0,0,1-16,44.59,171.21,171.21,0,0,1-31.4,45.34C320.64,151.58,320.59,151.6,320.53,151.55ZM382.05,58a210.06,210.06,0,0,1-23.3,60.64,164.9,164.9,0,0,1-19.38,27.2c-1.7,2-3.47,3.81-5.3,5.61a.12.12,0,0,1-.09,0h-.06q-.07-.06,0-.15a225.32,225.32,0,0,0,28.26-46.1Q378,70.69,382.37,37.13c.48-3.63.78-7.11.93-10.48.09-2,.28-2,.62-.2C385.64,35.91,384.31,47.34,382.05,58Z" fill="#fff"/><path d="M323.6,6a17.43,17.43,0,0,1,8.66,8.62A16.71,16.71,0,0,0,323.6,6Z" fill="#fff"/><path d="M335.12,23a68.09,68.09,0,0,1,1.21,10.89A57.82,57.82,0,0,0,335.12,23ZM319.8,4.94a18.08,18.08,0,0,0-2.57-.18,17,17,0,0,1,2.64.2S319.82,4.94,319.8,4.94ZM287.53,20.86a1.29,1.29,0,0,0,.8-.39A80.23,80.23,0,0,1,299,11.62c.2-.14.29-.25.25-.31A82.94,82.94,0,0,0,287.53,20.86Zm-5.32,5.68H282c-2.5,2.75-5,5.71-7.46,8.89h.14a.64.64,0,0,0,.52-.27l7-8.48C282.3,26.63,282.28,26.54,282.21,26.54ZM250.52,168.17a30.24,30.24,0,0,0-3.57-.79,15.74,15.74,0,0,0,4.38,1.27,19.36,19.36,0,0,0,3.51.16A18,18,0,0,1,250.52,168.17Z" fill="#fff"/><path d="M336.33,33.93A68.09,68.09,0,0,0,335.12,23c-.11-.5-.22-1-.34-1.48s-.29-1.11-.45-1.64c-.21-.77-.44-1.52-.71-2.23s-.59-1.5-.91-2.2c-.14-.3-.29-.61-.45-.89A17.43,17.43,0,0,0,323.6,6l-.85-.32c-.25-.09-.52-.18-.79-.25A15.82,15.82,0,0,0,319.87,5a17,17,0,0,0-2.64-.2H317c-.45,0-.9,0-1.38.06-.12,0-.27,0-.39,0-4.93.48-10.35,2.73-16,6.46,0,.06,0,.17-.25.31a80.23,80.23,0,0,0-10.69,8.85,1.29,1.29,0,0,1-.8.39c-1.84,1.79-3.68,3.66-5.5,5.68h.18c.07,0,.09.09,0,.14l-7,8.48a.64.64,0,0,1-.52.27h-.14c-1.34,1.73-2.68,3.52-4,5.37A212.83,212.83,0,0,0,248,81.36c-8.9,21-13.37,40.68-13.47,56q-19.31.81-38.69,1.47l-12.76.48a.17.17,0,0,0-.14.12v0s0,.05,0,.05q25.88,1.29,51.65,2.61a57.33,57.33,0,0,0,.89,7.46l-72-1c-.06,0-.11.06-.15.11s0,.11.08.11l73.31,5.75a25.2,25.2,0,0,0,4.09,8q-20.17-.6-40.77-1.22a6.66,6.66,0,0,0-1.08,0s0,0,0,0c2.34.39,4.81.75,7.39,1q19.26,2.25,39.74,4.85l.78.11a30.24,30.24,0,0,1,3.57.79,18,18,0,0,0,4.32.64H255c14.71.32,31.65-16.35,40.88-27.95a180.23,180.23,0,0,0,14.56-21.37,209.11,209.11,0,0,0,16.34-34.92,176.18,176.18,0,0,0,6.74-23.27q1.29-6,2-11.84a100.08,100.08,0,0,0,.78-10.26c0-.88.06-1.75.06-2.59V36C336.37,35.29,336.37,34.61,336.33,33.93Zm-90.09,70.89a158.33,158.33,0,0,1,7.18-21A175,175,0,0,1,271,51.41c13.6-19.64,29.1-31.94,40.33-30.28,9.78,1.45,14.26,13.16,13.21,30.12-.74,11.83-4.15,26.22-10.32,41.45a163.51,163.51,0,0,1-23.42,40.44c-12,14.84-24.9,23.64-34.72,22.21C242.4,153.39,239,132.29,246.24,104.82Z" fill="#fff"/><path d="M258.65,142C248.26,73.66,305.34-.22,296.14,58.92,335.77,9.77,320.08,97.23,258.65,142Z" fill="#fff"/><path d="M451.59,64A7.23,7.23,0,0,1,454,59.7a6.55,6.55,0,0,1,4.48-1.76h18.18A26.26,26.26,0,0,1,487.06,60a25.58,25.58,0,0,1,8.34,5.65,26,26,0,0,1,5.48,8.42,27.11,27.11,0,0,1,2,10.34A29.65,29.65,0,0,1,500,97.23a34.91,34.91,0,0,1-7.62,10.55,37.13,37.13,0,0,1-11,7.2,32.4,32.4,0,0,1-12.94,2.68H450.09a5.21,5.21,0,0,1-3.77-1.46,4.88,4.88,0,0,1-1.51-3.65,4.34,4.34,0,0,1,.08-.92Zm6,43.72h10.64a21.77,21.77,0,0,0,8.58-1.75,23.84,23.84,0,0,0,7.33-4.81,23.57,23.57,0,0,0,5.07-7.06A19.85,19.85,0,0,0,491,85.55a18.22,18.22,0,0,0-1.3-6.9,17.15,17.15,0,0,0-3.6-5.6,16.78,16.78,0,0,0-5.48-3.76,17.32,17.32,0,0,0-7-1.38H463.07Z" fill="#fff"/><path d="M515.58,119.08a5.18,5.18,0,0,1-3.77-1.46A4.9,4.9,0,0,1,510.3,114a3.83,3.83,0,0,1,.09-.93L517.26,64a7.1,7.1,0,0,1,6.86-6h22.12a17.41,17.41,0,0,1,7,1.39,16.66,16.66,0,0,1,5.53,3.77,18,18,0,0,1,5,12.52,19.05,19.05,0,0,1-1,6.15A22.56,22.56,0,0,1,560,87.3,25.27,25.27,0,0,1,555.83,92a24.66,24.66,0,0,1-5.24,3.52l6.2,15.66a4.79,4.79,0,0,1,.25,1,6.43,6.43,0,0,1,.08,1,5.74,5.74,0,0,1-1.8,4.1,5.89,5.89,0,0,1-4.39,1.84,5.09,5.09,0,0,1-2.73-.75,4,4,0,0,1-1.71-2.09l-7.37-18.43H524.63l-2.18,15.24a7.22,7.22,0,0,1-2.39,4.28A6.53,6.53,0,0,1,515.58,119.08Zm13.15-51.17L526,87.84h14.65a11.54,11.54,0,0,0,4.53-.88,11.19,11.19,0,0,0,3.6-2.38,11.6,11.6,0,0,0,2.39-3.52,10.62,10.62,0,0,0,.87-4.27,8.85,8.85,0,0,0-2.42-6.32,8.17,8.17,0,0,0-6.2-2.56Z" fill="#fff"/><path d="M576.3,119.08a5.18,5.18,0,0,1-3.77-1.46A4.89,4.89,0,0,1,571,114a3.91,3.91,0,0,1,.08-.93l7-50.5a7.13,7.13,0,0,1,6.87-6A5.17,5.17,0,0,1,588.78,58a4.84,4.84,0,0,1,1.51,3.64,3.15,3.15,0,0,1,0,.46,2.19,2.19,0,0,0,0,.46l-7,50.5a7.22,7.22,0,0,1-2.39,4.28A6.53,6.53,0,0,1,576.3,119.08Z" fill="#fff"/><path d="M607.17,59.7a6.54,6.54,0,0,1,4.48-1.76H642.8a4.12,4.12,0,0,1,3.14,1.3,4.45,4.45,0,0,1,1.22,3.14,5.2,5.2,0,0,1-1.76,3.86,5.68,5.68,0,0,1-4,1.67H616.25L614.41,81.4h19.1a4.12,4.12,0,0,1,3.14,1.29,4.45,4.45,0,0,1,1.21,3.14,5.2,5.2,0,0,1-1.76,3.86,5.64,5.64,0,0,1-4,1.67H613l-3,21.69a7.17,7.17,0,0,1-2.39,4.28,6.53,6.53,0,0,1-4.48,1.75,5.2,5.2,0,0,1-3.77-1.46,4.89,4.89,0,0,1-1.5-3.64,3.91,3.91,0,0,1,.08-.93L604.78,64A7.17,7.17,0,0,1,607.17,59.7Z" fill="#fff"/><path d="M650.26,63.47A5.16,5.16,0,0,1,652,59.62,5.55,5.55,0,0,1,656,57.94h38.28a4.13,4.13,0,0,1,3.14,1.3,4.45,4.45,0,0,1,1.21,3.14,5.16,5.16,0,0,1-1.76,3.86,5.68,5.68,0,0,1-4,1.67h-13l-6.36,45.14a7.22,7.22,0,0,1-2.39,4.28,6.54,6.54,0,0,1-4.48,1.75,5.17,5.17,0,0,1-3.77-1.46,4.86,4.86,0,0,1-1.51-3.64,3.83,3.83,0,0,1,.09-.93l6.28-45.14H654.53a4,4,0,0,1-3.06-1.3A4.41,4.41,0,0,1,650.26,63.47Z" fill="#fff"/><path d="M730.66,64a7.17,7.17,0,0,1,2.39-4.27,6.54,6.54,0,0,1,4.48-1.76H755.7A26.31,26.31,0,0,1,766.13,60a25.44,25.44,0,0,1,8.33,5.65A25.88,25.88,0,0,1,780,74.07a27.11,27.11,0,0,1,2,10.34,29.65,29.65,0,0,1-2.85,12.82,35.09,35.09,0,0,1-7.62,10.55,37.18,37.18,0,0,1-11,7.2,32.4,32.4,0,0,1-12.94,2.68H729.15a5.22,5.22,0,0,1-3.77-1.46,4.92,4.92,0,0,1-1.51-3.65,3.68,3.68,0,0,1,.09-.92Zm6,43.72h10.63a21.85,21.85,0,0,0,8.59-1.75,24.08,24.08,0,0,0,7.33-4.81,23.37,23.37,0,0,0,5.06-7.06,19.72,19.72,0,0,0,1.89-8.52,18.41,18.41,0,0,0-1.3-6.9,17.48,17.48,0,0,0-3.6-5.6,16.92,16.92,0,0,0-5.49-3.76,17.28,17.28,0,0,0-7-1.38H742.13Z" fill="#fff"/><path d="M806,62.22a9.76,9.76,0,0,1,3.6-4.11,9.18,9.18,0,0,1,5.11-1.59,7.2,7.2,0,0,1,4.65,1.59,6.93,6.93,0,0,1,2.47,4.19L831,111.72a6.48,6.48,0,0,1,.17,1.33,4.73,4.73,0,0,1-.54,2.22,8,8,0,0,1-1.42,1.93,6.63,6.63,0,0,1-4.57,1.88,4.67,4.67,0,0,1-3.22-1.13,5,5,0,0,1-1.64-3l-1.59-9.88H797.66L793.31,115a7.1,7.1,0,0,1-2.47,3,6.09,6.09,0,0,1-3.56,1.13,4.61,4.61,0,0,1-3.56-1.5,5,5,0,0,1-1.39-3.52,4.24,4.24,0,0,1,.21-1.47l.38-1Zm10.38,32.91-3.77-23.78L802.18,95.13Z" fill="#fff"/><path d="M837.7,63.47a5.16,5.16,0,0,1,1.76-3.85,5.55,5.55,0,0,1,3.93-1.68h38.28a4.13,4.13,0,0,1,3.14,1.3A4.45,4.45,0,0,1,886,62.38a5.16,5.16,0,0,1-1.76,3.86,5.68,5.68,0,0,1-4,1.67h-13l-6.36,45.14a7.22,7.22,0,0,1-2.39,4.28,6.54,6.54,0,0,1-4.48,1.75,5.17,5.17,0,0,1-3.77-1.46,4.86,4.86,0,0,1-1.51-3.64,3.83,3.83,0,0,1,.09-.93l6.28-45.14H842a4,4,0,0,1-3.06-1.3A4.41,4.41,0,0,1,837.7,63.47Z" fill="#fff"/><path d="M893,119.08a5.18,5.18,0,0,1-3.77-1.46,4.89,4.89,0,0,1-1.5-3.64,3.91,3.91,0,0,1,.08-.93l7-50.5a7.13,7.13,0,0,1,6.87-6A5.17,5.17,0,0,1,905.45,58,4.84,4.84,0,0,1,907,61.63a3.15,3.15,0,0,1,0,.46,2.19,2.19,0,0,0,0,.46l-7,50.5a7.22,7.22,0,0,1-2.39,4.28A6.53,6.53,0,0,1,893,119.08Z" fill="#fff"/><path d="M957,62.55a7.13,7.13,0,0,1,6.87-6A5.19,5.19,0,0,1,967.6,58a4.88,4.88,0,0,1,1.51,3.64,2.16,2.16,0,0,1-.05.46,2.19,2.19,0,0,0,0,.46l-6.87,48.83a9.37,9.37,0,0,1-1,3,8.34,8.34,0,0,1-2,2.48,9.58,9.58,0,0,1-2.68,1.63,8.2,8.2,0,0,1-3.06.58,7.27,7.27,0,0,1-3.68-1,5.56,5.56,0,0,1-2.43-2.8L931,76.29l-5.19,36.76a7.27,7.27,0,0,1-2.39,4.28,6.56,6.56,0,0,1-4.48,1.75,5.17,5.17,0,0,1-3.77-1.46,4.86,4.86,0,0,1-1.51-3.64,4.51,4.51,0,0,1,.08-.93l6.79-48.74a9.07,9.07,0,0,1,3.06-5.49,10.05,10.05,0,0,1,2.72-1.67,8,8,0,0,1,3.1-.63,7.24,7.24,0,0,1,3.76,1,5.84,5.84,0,0,1,2.43,2.85l16.25,38.78Z" fill="#fff"/><path d="M1002.31,92.24a4.41,4.41,0,0,1-1.21-3.14,5.19,5.19,0,0,1,1.76-3.85,5.55,5.55,0,0,1,3.93-1.68H1026a5.17,5.17,0,0,1,3.77,1.47,4.86,4.86,0,0,1,1.51,3.64,2.19,2.19,0,0,1,0,.46,2.25,2.25,0,0,0,0,.46l-1.76,12.06a14.52,14.52,0,0,1-3.23,7.17,24.93,24.93,0,0,1-6.45,5.52,33.21,33.21,0,0,1-8.29,3.56,32,32,0,0,1-8.67,1.26,29.34,29.34,0,0,1-11.34-2.1,24.38,24.38,0,0,1-8.59-5.82,26.12,26.12,0,0,1-5.44-8.75,30.29,30.29,0,0,1-1.93-11,33.57,33.57,0,0,1,2.81-13.74,34.83,34.83,0,0,1,7.66-11.09,35.76,35.76,0,0,1,11.47-7.46,36.93,36.93,0,0,1,14.16-2.72,30.68,30.68,0,0,1,6.28.71,28.92,28.92,0,0,1,6.2,2.05,17.42,17.42,0,0,1,4.73,3.19,5.6,5.6,0,0,1,1.88,4.1,5.23,5.23,0,0,1-1.71,3.85,5.62,5.62,0,0,1-4.06,1.68,4.09,4.09,0,0,1-3-1.17,16.4,16.4,0,0,0-11.73-4.44,22,22,0,0,0-9,1.84,22.55,22.55,0,0,0-7.28,5A23.39,23.39,0,0,0,989,81a25.1,25.1,0,0,0-1.76,9.4,22.66,22.66,0,0,0,1.17,7.36,18.1,18.1,0,0,0,3.35,6,15.59,15.59,0,0,0,5.32,4,16.63,16.63,0,0,0,7.08,1.46,18.14,18.14,0,0,0,13.4-5.83l1.42-9.83h-13.65A4,4,0,0,1,1002.31,92.24Z" fill="#fff"/></svg>